<svg width="16" height="16" viewBox="0 0 16 16" fill="none" xmlns="http://www.w3.org/2000/svg">
<g clip-path="url(#clip0_3490_16262)">
<path d="M0 2.19301L0 13.807C0 15.0182 0.981843 16 2.19301 16H13.807C15.0182 16 16 15.0182 16 13.807V2.19301C16 0.981845 15.0182 0 13.807 0H2.19301C0.981843 0 0 0.981845 0 2.19301Z" fill="#5268AF"/>
<path d="M3.73535 9.44963H2.9481C2.85393 9.44963 2.76361 9.41225 2.69698 9.3457C2.63035 9.27916 2.59286 9.18888 2.59274 9.09471C2.59796 8.7959 2.51054 8.32138 2.9481 8.30615H3.73535C3.82948 8.30615 3.91976 8.34355 3.98632 8.41011C4.05288 8.47667 4.09027 8.56694 4.09027 8.66107C4.08549 8.95988 4.17291 9.43441 3.73535 9.44963Z" fill="white"/>
<path d="M10.324 4.46046H9.50669C9.45995 4.46046 9.41367 4.45124 9.3705 4.43333C9.32733 4.41541 9.28812 4.38916 9.25511 4.35607C9.2221 4.32298 9.19594 4.2837 9.17814 4.24049C9.16033 4.19728 9.15122 4.15097 9.15134 4.10423C9.15656 3.80543 9.06913 3.3309 9.50669 3.31567H10.324C10.3706 3.31567 10.4168 3.32487 10.4599 3.34273C10.503 3.3606 10.5421 3.38678 10.5751 3.41978C10.608 3.45278 10.6342 3.49196 10.652 3.53507C10.6698 3.57818 10.6789 3.62438 10.6789 3.67103C10.6741 3.97071 10.7615 4.44523 10.324 4.46046Z" fill="white"/>
<path d="M10.637 10.0781L10.099 9.45914C10.0695 9.42525 10.0471 9.38586 10.0329 9.34325C10.0188 9.30063 10.0132 9.25564 10.0166 9.21086C10.0199 9.16609 10.0321 9.12242 10.0525 9.08239C10.0728 9.04236 10.1009 9.00676 10.1351 8.97765L11.7552 7.59235C11.8248 7.53366 11.9145 7.50452 12.0052 7.51119C12.0959 7.51786 12.1805 7.55979 12.2406 7.62801L12.7791 8.24694C12.8086 8.28082 12.831 8.32021 12.8452 8.36283C12.8593 8.40544 12.8648 8.45044 12.8615 8.49521C12.8581 8.53999 12.8459 8.58365 12.8256 8.62368C12.8053 8.66371 12.7772 8.69931 12.743 8.72843L11.1224 10.1137C11.0529 10.1724 10.9631 10.2016 10.8724 10.1949C10.7817 10.1882 10.6972 10.1463 10.637 10.0781Z" fill="white"/>
<path d="M10.206 10.4543L10.7054 9.80452C10.7613 9.73281 10.8432 9.68587 10.9333 9.67375C11.0235 9.66164 11.1148 9.68532 11.1877 9.73971L13.8048 11.7157C13.8407 11.7426 13.871 11.7765 13.8937 11.8152C13.9165 11.8539 13.9313 11.8968 13.9374 11.9413C13.9435 11.9858 13.9407 12.0311 13.9291 12.0745C13.9175 12.1179 13.8975 12.1585 13.87 12.1941L13.3712 12.8466C13.3151 12.9183 13.2332 12.9653 13.1429 12.9773C13.0526 12.9893 12.9613 12.9655 12.8884 12.9109L10.2713 10.9328C10.2354 10.9058 10.2052 10.872 10.1825 10.8332C10.1598 10.7945 10.1449 10.7517 10.1389 10.7072C10.1328 10.6627 10.1356 10.6174 10.1471 10.574C10.1587 10.5306 10.1787 10.4899 10.206 10.4543Z" fill="white"/>
<path d="M3.80277 4.84346H2.94897C2.85803 4.84381 2.77067 4.80804 2.70608 4.74402C2.64149 4.68 2.60495 4.59297 2.60449 4.50203V3.65345C2.60495 3.56251 2.64149 3.47547 2.70608 3.41145C2.77067 3.34743 2.85803 3.31167 2.94897 3.31201H3.80277C3.89371 3.31167 3.98107 3.34743 4.04566 3.41145C4.11025 3.47547 4.14679 3.56251 4.14725 3.65345V4.50029C4.14725 4.54546 4.13833 4.59019 4.121 4.63192C4.10368 4.67364 4.07828 4.71153 4.04628 4.74341C4.01427 4.77529 3.97629 4.80054 3.9345 4.81771C3.89271 4.83488 3.84795 4.84363 3.80277 4.84346Z" fill="white"/>
<path d="M13.4634 11.6192L11.2487 9.95639L12.4517 8.92599C12.5188 8.86873 12.5739 8.79876 12.6139 8.72013C12.6539 8.64149 12.6779 8.55573 12.6846 8.46778C12.6913 8.37983 12.6806 8.29142 12.653 8.20763C12.6254 8.12384 12.5816 8.04633 12.5239 7.97955C11.8985 7.27841 11.1599 8.3275 10.6789 8.67546V4.08023C10.6789 3.87778 10.5985 3.68362 10.4553 3.54047C10.3122 3.39732 10.118 3.31689 9.91556 3.31689C9.71311 3.31689 9.51895 3.39732 9.3758 3.54047C9.23265 3.68362 9.15223 3.87778 9.15223 4.08023V9.29178C8.72337 12.4856 4.2434 12.2729 4.09334 9.06474C4.05768 8.0848 2.59234 8.11481 2.59669 9.09562C2.73065 13.3016 8.2658 14.636 10.2196 10.8654L12.6531 12.6922C12.7234 12.7475 12.804 12.7881 12.8902 12.8119C12.9764 12.8356 13.0665 12.8419 13.1551 12.8304C13.2438 12.8189 13.3293 12.7899 13.4066 12.745C13.4839 12.7 13.5514 12.6402 13.6053 12.5688C13.6592 12.4975 13.6983 12.4161 13.7204 12.3294C13.7424 12.2428 13.747 12.1526 13.7337 12.0642C13.7205 11.9758 13.6898 11.8909 13.6434 11.8145C13.597 11.7381 13.5358 11.6717 13.4634 11.6192Z" fill="white"/>
</g>
<defs>
<clipPath id="clip0_3490_16262">
<rect width="16" height="16" fill="white"/>
</clipPath>
</defs>
</svg>
